<?xml version="1.0" encoding="UTF-8"?>
<svg version="1.1" xmlns="http://www.w3.org/2000/svg" width="512" height="512">
<path d="M0 0 C2.4223372 0.00850284 4.84229807 -0.02037409 7.2644043 -0.05200195 C31.87830248 -0.16244943 56.15464494 7.80125744 76.62182617 21.44604492 C80.08623427 21.21353431 82.77654481 19.26722684 85.69702148 17.51293945 C102.82042432 7.24310497 122.65936375 0.42126671 142.73120117 0.20776367 C143.87152298 0.19300491 143.87152298 0.19300491 145.03488159 0.177948 C176.54697546 -0.14621496 176.54697546 -0.14621496 190.62182617 4.44604492 C191.3954248 4.68742187 192.16902344 4.92879883 192.96606445 5.17749023 C210.03317959 10.60591853 224.96352527 18.8933447 238.62182617 30.44604492 C239.13729004 30.88174805 239.65275391 31.31745117 240.18383789 31.76635742 C258.51079996 47.47026228 272.07191837 67.54427928 279.87182617 90.38354492 C280.10603271 91.06191406 280.34023926 91.7402832 280.58154297 92.43920898 C284.66649453 105.0177547 286.13992209 117.2605804 286.06787109 130.39697266 C286.05936828 132.74690842 286.08824957 135.09439404 286.11987305 137.4440918 C286.27687823 171.76605083 270.83064077 203.78863342 247.09838867 228.03588867 C238.50488566 236.57482223 229.2032727 243.52234574 218.62182617 249.44604492 C218.01886719 249.7837793 217.4159082 250.12151367 216.79467773 250.46948242 C209.07826953 254.72570758 201.26913157 258.13491386 192.87182617 260.82104492 C192.12852051 261.05968262 191.38521484 261.29832031 190.61938477 261.54418945 C179.05118239 265.04426031 167.7337573 265.79447945 155.73242188 265.76171875 C153.32334879 265.75856329 150.91551379 265.78208833 148.5065918 265.80737305 C138.48975725 265.84848163 129.35599521 264.86930645 119.62182617 262.44604492 C118.82752197 262.25260498 118.03321777 262.05916504 117.21484375 261.85986328 C105.01727529 258.68548079 93.3884848 253.4249013 82.93432617 246.38354492 C79.92606537 244.20873148 79.92606537 244.20873148 77.30541992 244.59838867 C73.97503282 245.65034501 71.34935353 247.24360515 68.37182617 249.07104492 C51.73387778 258.89993183 32.70211384 265.53941397 13.25073242 265.64916992 C12.4513475 265.65487 11.65196259 265.66057007 10.82835388 265.66644287 C9.13818671 265.67585741 7.44800147 265.68241269 5.7578125 265.6862793 C3.22320619 265.69589738 0.68944272 265.72691726 -1.8449707 265.75854492 C-12.09446489 265.82589404 -21.398213 264.99304982 -31.37817383 262.44604492 C-32.21727295 262.23222168 -33.05637207 262.01839844 -33.92089844 261.7980957 C-36.01554649 261.2189583 -38.06943122 260.57894019 -40.12817383 259.88354492 C-40.86495361 259.63523926 -41.6017334 259.38693359 -42.36083984 259.13110352 C-55.68746768 254.40678237 -68.4235667 247.37678035 -79.37817383 238.44604492 C-79.91216797 238.02129883 -80.44616211 237.59655273 -80.99633789 237.15893555 C-107.998557 215.5875853 -125.59109765 184.82327323 -130.37817383 150.44604492 C-130.90407267 144.76849932 -130.91296421 139.08082074 -130.87817383 133.38354492 C-130.87674377 132.62246429 -130.87531372 131.86138367 -130.87384033 131.07723999 C-130.81335736 118.01240612 -129.39447682 105.9403155 -125.37817383 93.44604492 C-125.15887207 92.7304541 -124.93957031 92.01486328 -124.71362305 91.27758789 C-119.52633828 74.68216223 -110.52028687 59.70193504 -99.37817383 46.44604492 C-98.63825195 45.55401367 -97.89833008 44.66198242 -97.13598633 43.74291992 C-91.78799188 37.53848509 -85.86123959 32.43092322 -79.37817383 27.44604492 C-78.5609082 26.78991211 -77.74364258 26.1337793 -76.90161133 25.45776367 C-65.92192266 16.97654905 -53.26242246 10.4349806 -40.12817383 6.00854492 C-39.46938232 5.78602051 -38.81059082 5.56349609 -38.13183594 5.33422852 C-25.46744226 1.35622165 -13.18967394 -0.07020716 0 0 Z M-40.37817383 21.44604492 C-41.39782227 21.80311523 -42.4174707 22.16018555 -43.46801758 22.52807617 C-71.73800812 33.26687795 -93.74720812 56.42672716 -106.28857422 83.48486328 C-119.13104848 112.29440838 -120.43500105 145.0858681 -109.62817383 174.75854492 C-98.00245147 204.54643579 -75.87583839 228.97476808 -46.62036133 242.19995117 C-15.77790807 255.3997485 17.45441267 255.49576165 48.55932617 243.29370117 C71.69356102 233.30697479 91.60185493 216.88936744 104.57202148 195.18481445 C105.30024412 193.97867455 106.06286171 192.79289896 106.85131836 191.62524414 C108.20399148 189.61889098 108.20399148 189.61889098 109.62182617 186.44604492 C109.15078371 183.7733713 109.15078371 183.7733713 107.62182617 181.44604492 C107.21963867 180.58366211 106.81745117 179.7212793 106.40307617 178.83276367 C105.55193477 177.03965786 104.69778722 175.24797577 103.84057617 173.45776367 C101.16752992 166.85225514 100.32284772 160.78117338 100.30297852 153.73510742 C100.28791008 152.48977486 100.28791008 152.48977486 100.27253723 151.21928406 C100.24190028 148.50321073 100.22472481 145.78723507 100.20776367 143.07104492 C100.18903631 141.17674938 100.16946174 139.28246204 100.14907837 137.38818359 C100.0979168 132.42349094 100.05820588 127.45877129 100.02093506 122.49395752 C99.98079489 117.41932586 99.92974838 112.34494895 99.87963867 107.27026367 C99.78306863 97.32892778 99.69961272 87.38754555 99.62182617 77.44604492 C111.17182617 77.44604492 122.72182617 77.44604492 134.62182617 77.44604492 C134.58702148 82.98385742 134.5522168 88.52166992 134.51635742 94.22729492 C134.50102025 97.7455347 134.48657778 101.26373298 134.4753418 104.78198242 C134.45744129 110.36052054 134.43631479 115.93891026 134.39550781 121.51733398 C134.36279854 126.01718264 134.34494882 130.51687204 134.33719444 135.01683044 C134.33167164 136.72955327 134.32088707 138.44226785 134.304636 140.15492249 C134.2827075 142.5626985 134.27986561 144.96982499 134.28125 147.37768555 C134.27046417 148.07828094 134.25967834 148.77887634 134.24856567 149.5007019 C134.28820073 155.91403212 135.9890266 161.09889554 139.62182617 166.32104492 C144.60415308 169.85019315 150.10596149 170.71108703 156.16088867 170.25463867 C160.87950309 169.37877546 164.25795667 168.0077891 167.62182617 164.44604492 C170.51405588 159.71996747 171.0418801 155.75153196 170.96240234 150.3293457 C170.96305946 149.14297264 170.96305946 149.14297264 170.96372986 147.93263245 C170.96165066 145.33528396 170.9383612 142.73859225 170.91479492 140.14135742 C170.90919587 138.33389641 170.90492723 136.52643083 170.90193176 134.71896362 C170.89050735 129.97435821 170.86106094 125.2300307 170.82781982 120.48553467 C170.79165492 114.78616071 170.77794633 109.08669355 170.7604599 103.38723755 C170.7314221 94.73998039 170.67391826 86.09333233 170.62182617 77.44604492 C182.50182617 77.44604492 194.38182617 77.44604492 206.62182617 77.44604492 C206.29182617 118.03604492 205.96182617 158.62604492 205.62182617 200.44604492 C196.62182617 199.44604492 196.62182617 199.44604492 194.43041992 197.37963867 C193.75172852 196.14407227 193.75172852 196.14407227 193.05932617 194.88354492 C192.58366211 194.05725586 192.10799805 193.2309668 191.61791992 192.37963867 C191.28920898 191.74155273 190.96049805 191.1033668 190.62182617 190.44604492 C189.96698242 190.90495117 189.31213867 191.36385742 188.63745117 191.83666992 C173.15243401 202.24750067 156.13748968 204.49389787 137.85620117 201.91479492 C131.97598466 200.52766692 126.92854402 198.29594895 121.62182617 195.44604492 C120.96182617 195.44604492 120.30182617 195.44604492 119.62182617 195.44604492 C118.55197375 197.1328861 117.56843478 198.8745823 116.62182617 200.63354492 C109.39588726 213.3012403 100.10483199 223.40667728 89.62182617 233.44604492 C106.41490965 247.89884935 134.5882803 253.41813081 156.15307617 252.72338867 C191.66238998 249.88424309 221.60360639 236.48919811 245.33666992 209.28198242 C265.43745976 184.33638683 275.22387565 152.5045356 271.93432617 120.57104492 C268.12063298 88.28893776 252.32532008 58.73221052 226.62182617 38.44604492 C206.62889319 23.31289428 183.53349404 15.25780259 158.62182617 13.44604492 C157.6344043 13.37385742 156.64698242 13.30166992 155.62963867 13.22729492 C125.11679988 12.19003128 95.7736834 24.12971653 73.18432617 44.13354492 C71.65693604 45.56407617 70.13539673 47.00089979 68.62182617 48.44604492 C68.02241211 48.98229492 67.42299805 49.51854492 66.80541992 50.07104492 C56.26897519 59.84964792 49.60109597 72.58560429 43.62182617 85.44604492 C44.14131836 85.82116211 44.66081055 86.1962793 45.19604492 86.58276367 C58.53439116 96.37079224 65.60994658 107.39852657 69.62182617 123.44604492 C57.08182617 123.44604492 44.54182617 123.44604492 31.62182617 123.44604492 C30.96182617 121.79604492 30.30182617 120.14604492 29.62182617 118.44604492 C25.17965553 113.35923211 19.60779172 109.95417084 12.86401367 109.09448242 C5.41996888 108.73275134 -0.32339136 109.99939541 -6.37817383 114.44604492 C-13.71958981 121.58568837 -15.65770669 129.84623744 -15.81567383 139.82104492 C-15.76469644 148.32222014 -14.26305256 155.93076013 -9.06567383 162.88354492 C-4.83445464 166.91796322 -0.33756605 169.87848376 5.62182617 170.44604492 C6.26764648 170.50920898 6.9134668 170.57237305 7.57885742 170.63745117 C13.86747254 170.9788646 19.17353337 169.63191105 24.62182617 166.44604492 C27.53997329 163.79372092 29.85718302 160.97533123 31.62182617 157.44604492 C44.16182617 157.11604492 56.70182617 156.78604492 69.62182617 156.44604492 C64.32010614 173.67663502 57.26384351 186.84300978 41.16870117 195.81323242 C24.76433777 203.91948217 5.00940462 205.04273398 -12.37817383 199.44604492 C-27.99788977 193.24187357 -38.59449393 183.25427391 -46.12817383 168.32104492 C-53.01426167 152.20805391 -54.04563279 131.6539135 -47.53149414 115.32348633 C-44.8287257 109.20024183 -42.00193815 103.20877742 -37.62036133 98.10620117 C-35.16334668 95.7710144 -35.16334668 95.7710144 -35.37817383 93.44604492 C-34.81098633 93.18436523 -34.24379883 92.92268555 -33.65942383 92.65307617 C-31.19331212 91.34823282 -29.10770606 89.80980998 -26.87817383 88.13354492 C-15.642572 80.19085143 -3.59212338 77.05701484 9.99682617 77.19604492 C10.91423584 77.19991211 11.83164551 77.2037793 12.77685547 77.20776367 C19.20857906 77.2898344 25.37682445 77.80801168 31.62182617 79.44604492 C32.31405273 77.95717773 32.31405273 77.95717773 33.02026367 76.43823242 C39.76558624 62.25300898 48.10347815 50.61106403 58.95776367 39.28588867 C61.32619214 36.76118559 63.50372549 34.1815067 65.62182617 31.44604492 C47.66567421 21.35807215 29.43515935 14.5574365 8.62182617 13.44604492 C7.78393555 13.39319336 6.94604492 13.3403418 6.08276367 13.28588867 C-9.75781454 12.77274318 -25.56763649 16.03231393 -40.37817383 21.44604492 Z " fill="#1DA678" transform="translate(179.378173828125,56.553955078125)"/>
<path d="M0 0 C5.51683575 3.49562336 10.17527996 7.55935967 12.05859375 13.9609375 C12.55438434 16.62111044 12.88498557 19.31098282 13.1875 22 C7.5775 22 1.9675 22 -3.8125 22 C-4.46354167 19.98177083 -5.11458333 17.96354167 -5.765625 15.9453125 C-7.11841346 13.43154886 -8.13104138 12.9251267 -10.8125 12 C-16.20195759 11.23696204 -20.44041737 11.10286905 -25.0625 14.125 C-27.04410655 16.87690731 -27.04410655 16.87690731 -27 20.0625 C-25.48085342 23.82038891 -23.270572 25.16471039 -19.8125 27 C-15.93590064 28.5887123 -11.95702979 29.87813788 -7.9765625 31.1796875 C-0.34129755 33.82266383 6.83442714 37.96811307 11.1875 45 C13.45915168 51.49043338 13.88137662 57.40628024 11.46875 63.94921875 C8.64996538 69.55033818 4.24970087 72.69742202 -1.4296875 75.11328125 C-10.99483718 77.62054335 -23.92279633 77.693153 -32.83984375 73.1953125 C-33.49082031 72.80085938 -34.14179687 72.40640625 -34.8125 72 C-35.80443359 71.43925781 -35.80443359 71.43925781 -36.81640625 70.8671875 C-41.1822345 68.11461937 -44.05793247 64.88772382 -45.8125 60 C-46.38305427 56.96832603 -46.6222849 54.09099539 -46.8125 51 C-41.2025 51 -35.5925 51 -29.8125 51 C-29.420625 52.258125 -29.02875 53.51625 -28.625 54.8125 C-27.52671284 57.70380479 -26.95757397 58.87507519 -24.5625 60.9375 C-18.53477095 63.26639531 -13.84403318 63.43581148 -7.8125 61 C-4.96167203 58.5946139 -4.83984229 57.30076519 -4.5 53.5625 C-5.96448412 49.58747166 -6.3638746 49.28080095 -9.9375 47.4375 C-13.1005727 46.04683873 -16.30597226 44.81028272 -19.53125 43.5703125 C-37.75685296 36.55571038 -37.75685296 36.55571038 -42.8125 28 C-44.86956988 21.81807644 -45.64147779 16.020966 -42.8125 10 C-34.53994999 -3.21985932 -13.62771854 -6.30599398 0 0 Z " fill="#1DA678" transform="translate(123.8125,366)"/>
<path d="M0 0 C5.43200458 3.23181449 8.16947958 7.19425099 10.5625 12.9375 C12.28861821 19.84197286 12.3125 25.65758197 12.3125 32.9375 C0.4325 32.9375 -11.4475 32.9375 -23.6875 32.9375 C-20.61759091 40.53493617 -20.61759091 40.53493617 -17 43 C-12.61774832 44.24025991 -9.07681993 44.13315704 -4.6875 42.9375 C-1.37890528 40.98293223 -1.37890528 40.98293223 1.3125 38.9375 C4.79373131 38.9375 5.17770636 39.34901304 7.5625 41.6875 C8.10390625 42.19796875 8.6453125 42.7084375 9.203125 43.234375 C10.3125 44.9375 10.3125 44.9375 10.18359375 46.9453125 C9.16001227 49.28623874 8.0734723 50.4194174 6.125 52.0625 C5.55394531 52.56007813 4.98289063 53.05765625 4.39453125 53.5703125 C-2.83257683 58.31606827 -12.36434095 57.90376107 -20.6875 56.9375 C-28.0630841 54.93022078 -33.62147768 50.36407416 -37.6875 43.9375 C-42.04671755 34.70529998 -42.04993238 23.8798753 -38.71484375 14.3203125 C-35.62724621 7.15896458 -32.05275237 1.9300641 -24.7265625 -1.24609375 C-16.66641946 -3.41135068 -7.68513621 -3.45773692 0 0 Z M-21.6875 13.9375 C-22.6775 17.4025 -22.6775 17.4025 -23.6875 20.9375 C-17.0875 20.9375 -10.4875 20.9375 -3.6875 20.9375 C-4.18206547 15.30232777 -4.18206547 15.30232777 -6.3125 12.625 C-11.98877204 8.59185934 -16.71604815 9.31289363 -21.6875 13.9375 Z " fill="#1DA678" transform="translate(233.6875,385.0625)"/>
<path d="M0 0 C5.43200458 3.23181449 8.16947958 7.19425099 10.5625 12.9375 C12.28861821 19.84197286 12.3125 25.65758197 12.3125 32.9375 C0.4325 32.9375 -11.4475 32.9375 -23.6875 32.9375 C-20.61759091 40.53493617 -20.61759091 40.53493617 -17 43 C-12.61774832 44.24025991 -9.07681993 44.13315704 -4.6875 42.9375 C-1.37890528 40.98293223 -1.37890528 40.98293223 1.3125 38.9375 C4.79373131 38.9375 5.17770636 39.34901304 7.5625 41.6875 C8.10390625 42.19796875 8.6453125 42.7084375 9.203125 43.234375 C10.3125 44.9375 10.3125 44.9375 10.18359375 46.9453125 C9.16001227 49.28623874 8.0734723 50.4194174 6.125 52.0625 C5.55394531 52.56007813 4.98289063 53.05765625 4.39453125 53.5703125 C-2.83257683 58.31606827 -12.36434095 57.90376107 -20.6875 56.9375 C-28.0630841 54.93022078 -33.62147768 50.36407416 -37.6875 43.9375 C-42.04671755 34.70529998 -42.04993238 23.8798753 -38.71484375 14.3203125 C-35.62724621 7.15896458 -32.05275237 1.9300641 -24.7265625 -1.24609375 C-16.66641946 -3.41135068 -7.68513621 -3.45773692 0 0 Z M-21.6875 13.9375 C-22.6775 17.4025 -22.6775 17.4025 -23.6875 20.9375 C-17.0875 20.9375 -10.4875 20.9375 -3.6875 20.9375 C-4.18206547 15.30232777 -4.18206547 15.30232777 -6.3125 12.625 C-11.98877204 8.59185934 -16.71604815 9.31289363 -21.6875 13.9375 Z " fill="#1DA678" transform="translate(179.6875,385.0625)"/>
<path d="M0 0 C6.73016211 4.29520458 11.60757981 10.72056782 13.375 18.5 C15.05974289 27.65990464 14.95114979 37.62115136 10.1875 45.875 C6.38901114 51.2533913 1.72927639 55.53595093 -4.625 57.5 C-14.21661314 58.42320491 -23.73082317 58.80310243 -31.625 52.5 C-38.65236416 45.59276173 -40.75992703 37.75853294 -41.0625 28.125 C-40.85275248 19.02378137 -38.87389845 10.62048462 -32.3515625 3.9375 C-24.13659138 -2.90211396 -9.83913548 -4.31304569 0 0 Z M-21.625 14.5 C-25.21847026 20.25495613 -25.3422331 26.9205817 -24.625 33.5 C-23.5699079 37.86391835 -22.14294374 41.57265996 -18.625 44.5 C-14.78463069 45.49549584 -12.55540511 45.90176584 -8.875 44.3125 C-5.60284738 41.67659927 -3.95423987 39.4877196 -2.625 35.5 C-2.47796936 33.06551182 -2.40394661 30.6262523 -2.375 28.1875 C-2.34921875 26.89199219 -2.3234375 25.59648437 -2.296875 24.26171875 C-2.70380155 19.59659653 -4.24779672 16.49694475 -6.875 12.6875 C-12.33745573 8.98083361 -17.07516108 10.26037737 -21.625 14.5 Z " fill="#1DA678" transform="translate(369.625,384.5)"/>
<path d="M0 0 C5.94 0 11.88 0 18 0 C32 27.51724138 32 27.51724138 32 32 C32.66 32 33.32 32 34 32 C34.27183105 31.13938965 34.54366211 30.2787793 34.82373047 29.39208984 C35.98062705 26.05586711 37.33103284 22.92692943 38.8203125 19.7265625 C39.35527344 18.57285156 39.89023437 17.41914063 40.44140625 16.23046875 C40.99699219 15.04066406 41.55257812 13.85085938 42.125 12.625 C42.69430498 11.39987642 43.26331817 10.17461721 43.83203125 8.94921875 C45.2184877 5.96481249 46.60886146 2.98222665 48 0 C54.27 0 60.54 0 67 0 C66.01 2.000625 65.02 4.00125 64 6.0625 C63.640271 6.80556396 63.28054199 7.54862793 62.90991211 8.31420898 C60.77164817 12.67415988 58.4959479 16.90550491 56.01956177 21.08416748 C44.72726241 40.20906317 40.59574363 54.64360023 42 77 C36.39 77 30.78 77 25 77 C25.04382813 75.12699219 25.08765625 73.25398438 25.1328125 71.32421875 C25.22731956 56.05472341 23.99632839 44.7216397 15.62841797 31.66748047 C12.59203722 26.69364299 9.98918143 21.47894041 7.33163452 16.29595947 C6.38749479 14.4617737 5.43146078 12.63427582 4.47192383 10.80810547 C3.89079834 9.6945166 3.30967285 8.58092773 2.7109375 7.43359375 C2.18806152 6.43384521 1.66518555 5.43409668 1.12646484 4.40405273 C0 2 0 2 0 0 Z " fill="#1DA678" transform="translate(267,365)"/>
<path d="M0 0 C5.28 0 10.56 0 16 0 C16.01981934 1.19077148 16.03963867 2.38154297 16.06005859 3.60839844 C16.13616995 8.02918532 16.22487894 12.44964543 16.31738281 16.87011719 C16.35564968 18.78281195 16.39050658 20.69557811 16.421875 22.60839844 C16.46757527 25.35898342 16.52556145 28.10907783 16.5859375 30.859375 C16.59748871 31.71368103 16.60903992 32.56798706 16.62094116 33.44818115 C16.64081085 34.24870911 16.66068054 35.04923706 16.68115234 35.87402344 C16.69447601 36.57573669 16.70779968 37.27744995 16.7215271 38.00042725 C17.05497916 40.39477748 17.67203792 41.97896029 19 44 C23.1408286 45.19446979 25.33797238 45.25745519 29.375 43.6875 C32.08089128 42.2636664 32.08089128 42.2636664 33 40 C33.15733249 37.01236645 33.25861415 34.04458849 33.31640625 31.0546875 C33.33718735 30.1696756 33.35796844 29.2846637 33.37937927 28.37283325 C33.44486598 25.54030259 33.50375562 22.70767775 33.5625 19.875 C33.60568606 17.95702143 33.64930037 16.03905246 33.69335938 14.12109375 C33.80054647 9.41415949 33.9018164 4.70713033 34 0 C39.28 0 44.56 0 50 0 C50 19.14 50 38.28 50 58 C45.05 58 40.1 58 35 58 C34.34 56.68 33.68 55.36 33 54 C31.74509766 54.97453125 31.74509766 54.97453125 30.46484375 55.96875 C24.94433316 59.63505565 18.33723615 58.67108287 12 58 C7.54426726 56.76957707 4.98994983 54.35418885 2.625 50.4375 C0.80191612 46.58097642 -0.12559313 43.83200313 -0.11352539 39.62036133 C-0.11344986 38.73967484 -0.11337433 37.85898834 -0.11329651 36.95161438 C-0.10813522 36.00465195 -0.10297394 35.05768951 -0.09765625 34.08203125 C-0.0962413 33.10965012 -0.09482635 32.13726898 -0.09336853 31.13542175 C-0.08776817 28.02774996 -0.07521562 24.92015004 -0.0625 21.8125 C-0.05748505 19.70638125 -0.05292213 17.60026137 -0.04882812 15.49414062 C-0.03779862 10.32939936 -0.02053375 5.16471187 0 0 Z " fill="#1DA678" transform="translate(388,384)"/>
</svg>
